<svg xmlns="http://www.w3.org/2000/svg" width="451" height="75" viewBox="0 0 451 75" role="img" aria-label="AGY-STAFF pixel wordmark, true Antigravity spectral gradient"><title>AGY-STAFF pixel wordmark, true Antigravity spectral gradient</title><style>.ink{fill:#202124}.sh{fill:#BDC1C6}@media (prefers-color-scheme:dark){.ink{fill:#E8EAED}.sh{fill:#3C4043}}</style><g shape-rendering="crispEdges"><g class="sh" transform="translate(3,3)"><rect x="16" y="8" width="24" height="8"/><rect x="8" y="16" width="8" height="8"/><rect x="40" y="16" width="8" height="8"/><rect x="8" y="24" width="8" height="8"/><rect x="40" y="24" width="8" height="8"/><rect x="8" y="32" width="40" height="8"/><rect x="8" y="40" width="8" height="8"/><rect x="40" y="40" width="8" height="8"/><rect x="8" y="48" width="8" height="8"/><rect x="40" y="48" width="8" height="8"/><rect x="8" y="56" width="8" height="8"/><rect x="40" y="56" width="8" height="8"/><rect x="64" y="8" width="24" height="8"/><rect x="56" y="16" width="8" height="8"/><rect x="88" y="16" width="8" height="8"/><rect x="56" y="24" width="8" height="8"/><rect x="56" y="32" width="8" height="8"/><rect x="72" y="32" width="24" height="8"/><rect x="56" y="40" width="8" height="8"/><rect x="88" y="40" width="8" height="8"/><rect x="56" y="48" width="8" height="8"/><rect x="88" y="48" width="8" height="8"/><rect x="64" y="56" width="32" height="8"/><rect x="104" y="8" width="8" height="8"/><rect x="136" y="8" width="8" height="8"/><rect x="104" y="16" width="8" height="8"/><rect x="136" y="16" width="8" height="8"/><rect x="112" y="24" width="8" height="8"/><rect x="128" y="24" width="8" height="8"/><rect x="120" y="32" width="8" height="8"/><rect x="120" y="40" width="8" height="8"/><rect x="120" y="48" width="8" height="8"/><rect x="120" y="56" width="8" height="8"/><rect x="216" y="8" width="32" height="8"/><rect x="208" y="16" width="8" height="8"/><rect x="208" y="24" width="8" height="8"/><rect x="216" y="32" width="24" height="8"/><rect x="240" y="40" width="8" height="8"/><rect x="240" y="48" width="8" height="8"/><rect x="208" y="56" width="32" height="8"/><rect x="256" y="8" width="40" height="8"/><rect x="272" y="16" width="8" height="8"/><rect x="272" y="24" width="8" height="8"/><rect x="272" y="32" width="8" height="8"/><rect x="272" y="40" width="8" height="8"/><rect x="272" y="48" width="8" height="8"/><rect x="272" y="56" width="8" height="8"/><rect x="312" y="8" width="24" height="8"/><rect x="304" y="16" width="8" height="8"/><rect x="336" y="16" width="8" height="8"/><rect x="304" y="24" width="8" height="8"/><rect x="336" y="24" width="8" height="8"/><rect x="304" y="32" width="40" height="8"/><rect x="304" y="40" width="8" height="8"/><rect x="336" y="40" width="8" height="8"/><rect x="304" y="48" width="8" height="8"/><rect x="336" y="48" width="8" height="8"/><rect x="304" y="56" width="8" height="8"/><rect x="336" y="56" width="8" height="8"/><rect x="352" y="8" width="40" height="8"/><rect x="352" y="16" width="8" height="8"/><rect x="352" y="24" width="8" height="8"/><rect x="352" y="32" width="32" height="8"/><rect x="352" y="40" width="8" height="8"/><rect x="352" y="48" width="8" height="8"/><rect x="352" y="56" width="8" height="8"/><rect x="400" y="8" width="40" height="8"/><rect x="400" y="16" width="8" height="8"/><rect x="400" y="24" width="8" height="8"/><rect x="400" y="32" width="32" height="8"/><rect x="400" y="40" width="8" height="8"/><rect x="400" y="48" width="8" height="8"/><rect x="400" y="56" width="8" height="8"/></g><g fill="#3D85FC"><rect x="56" y="40" width="8" height="8"/><rect x="88" y="40" width="8" height="8"/><rect x="56" y="48" width="8" height="8"/><rect x="88" y="48" width="8" height="8"/><rect x="64" y="56" width="8" height="8"/><rect x="72" y="56" width="8" height="8"/><rect x="80" y="56" width="8" height="8"/><rect x="88" y="56" width="8" height="8"/><rect x="120" y="56" width="8" height="8"/></g><g fill="#64B6F5"><rect x="8" y="48" width="8" height="8"/><rect x="40" y="48" width="8" height="8"/><rect x="8" y="56" width="8" height="8"/><rect x="40" y="56" width="8" height="8"/></g><g fill="#85C64E"><rect x="16" y="8" width="8" height="8"/><rect x="24" y="8" width="8" height="8"/><rect x="32" y="8" width="8" height="8"/><rect x="8" y="16" width="8" height="8"/><rect x="40" y="16" width="8" height="8"/><rect x="8" y="24" width="8" height="8"/><rect x="40" y="24" width="8" height="8"/></g><g fill="#F6912E"><rect x="80" y="8" width="8" height="8"/><rect x="88" y="16" width="8" height="8"/><rect x="56" y="24" width="8" height="8"/><rect x="56" y="32" width="8" height="8"/><rect x="72" y="32" width="8" height="8"/><rect x="80" y="32" width="8" height="8"/><rect x="88" y="32" width="8" height="8"/></g><g fill="#955FA5"><rect x="120" y="32" width="8" height="8"/><rect x="120" y="40" width="8" height="8"/></g><g fill="#EF5441"><rect x="104" y="8" width="8" height="8"/><rect x="136" y="8" width="8" height="8"/><rect x="104" y="16" width="8" height="8"/><rect x="136" y="16" width="8" height="8"/><rect x="112" y="24" width="8" height="8"/><rect x="128" y="24" width="8" height="8"/></g><g fill="#6C73D8"><rect x="120" y="48" width="8" height="8"/></g><g fill="#D9B031"><rect x="64" y="8" width="8" height="8"/><rect x="72" y="8" width="8" height="8"/><rect x="56" y="16" width="8" height="8"/></g><g fill="#43AEAA"><rect x="8" y="32" width="8" height="8"/><rect x="16" y="32" width="8" height="8"/><rect x="24" y="32" width="8" height="8"/><rect x="32" y="32" width="8" height="8"/><rect x="40" y="32" width="8" height="8"/><rect x="8" y="40" width="8" height="8"/><rect x="40" y="40" width="8" height="8"/></g><g fill="#FBBC04"><rect x="176" y="8" width="16" height="8"/><rect x="168" y="16" width="16" height="8"/><rect x="160" y="24" width="16" height="8"/><rect x="152" y="32" width="40" height="8"/><rect x="168" y="40" width="16" height="8"/><rect x="160" y="48" width="16" height="8"/><rect x="152" y="56" width="16" height="8"/></g><g class="ink"><rect x="216" y="8" width="32" height="8"/><rect x="208" y="16" width="8" height="8"/><rect x="208" y="24" width="8" height="8"/><rect x="216" y="32" width="24" height="8"/><rect x="240" y="40" width="8" height="8"/><rect x="240" y="48" width="8" height="8"/><rect x="208" y="56" width="32" height="8"/><rect x="256" y="8" width="40" height="8"/><rect x="272" y="16" width="8" height="8"/><rect x="272" y="24" width="8" height="8"/><rect x="272" y="32" width="8" height="8"/><rect x="272" y="40" width="8" height="8"/><rect x="272" y="48" width="8" height="8"/><rect x="272" y="56" width="8" height="8"/><rect x="312" y="8" width="24" height="8"/><rect x="304" y="16" width="8" height="8"/><rect x="336" y="16" width="8" height="8"/><rect x="304" y="24" width="8" height="8"/><rect x="336" y="24" width="8" height="8"/><rect x="304" y="32" width="40" height="8"/><rect x="304" y="40" width="8" height="8"/><rect x="336" y="40" width="8" height="8"/><rect x="304" y="48" width="8" height="8"/><rect x="336" y="48" width="8" height="8"/><rect x="304" y="56" width="8" height="8"/><rect x="336" y="56" width="8" height="8"/><rect x="352" y="8" width="40" height="8"/><rect x="352" y="16" width="8" height="8"/><rect x="352" y="24" width="8" height="8"/><rect x="352" y="32" width="32" height="8"/><rect x="352" y="40" width="8" height="8"/><rect x="352" y="48" width="8" height="8"/><rect x="352" y="56" width="8" height="8"/><rect x="400" y="8" width="40" height="8"/><rect x="400" y="16" width="8" height="8"/><rect x="400" y="24" width="8" height="8"/><rect x="400" y="32" width="32" height="8"/><rect x="400" y="40" width="8" height="8"/><rect x="400" y="48" width="8" height="8"/><rect x="400" y="56" width="8" height="8"/></g></g></svg>
